<svg width="44" height="44" viewBox="0 0 44 44" fill="none" xmlns="http://www.w3.org/2000/svg">
<circle cx="22" cy="22" r="21.5" stroke="#E2DEDE"/>
<path d="M31.874 19.6906L30.3299 19.4287C30.169 18.9093 29.9622 18.4084 29.7094 17.9304L30.6194 16.6574C31.0054 16.1151 30.9457 15.3752 30.4723 14.9064L29.1028 13.5369C28.8454 13.2795 28.5053 13.137 28.1423 13.137C27.8573 13.137 27.5862 13.2244 27.3564 13.3898L26.0788 14.2998C25.5824 14.0378 25.0631 13.8218 24.5254 13.661L24.268 12.1352C24.1577 11.478 23.5924 11 22.9261 11H20.9912C20.3248 11 19.7596 11.478 19.6493 12.1352L19.3827 13.6977C18.868 13.8586 18.367 14.07 17.8891 14.3273L16.6252 13.4174C16.3954 13.2519 16.1197 13.1646 15.8348 13.1646C15.4717 13.1646 15.127 13.3071 14.8742 13.5644L13.5001 14.934C13.0313 15.4028 12.967 16.1427 13.353 16.685L14.2722 17.9764C14.0194 18.459 13.8172 18.9599 13.661 19.4792L12.1352 19.7366C11.478 19.8469 11 20.4122 11 21.0785V23.0134C11 23.6798 11.478 24.245 12.1352 24.3553L13.6977 24.6219C13.8586 25.1366 14.07 25.6376 14.3273 26.1155L13.422 27.3748C13.0359 27.9171 13.0957 28.657 13.569 29.1258L14.9386 30.4953C15.1959 30.7527 15.536 30.8951 15.8991 30.8951C16.184 30.8951 16.4552 30.8078 16.685 30.6424L17.9764 29.7232C18.4406 29.9668 18.9277 30.1644 19.4287 30.3207L19.686 31.8648C19.7963 32.522 20.3616 33 21.028 33H22.9674C23.6338 33 24.1991 32.522 24.3094 31.8648L24.5713 30.3207C25.0907 30.1598 25.5916 29.953 26.0696 29.7002L27.3426 30.6102C27.5724 30.7756 27.8481 30.863 28.1331 30.863C28.4961 30.863 28.8362 30.7205 29.0936 30.4631L30.4631 29.0936C30.9319 28.6248 30.9962 27.8849 30.6102 27.3426L29.7002 26.065C29.953 25.5824 30.1644 25.0815 30.3207 24.5667L31.8648 24.3094C32.522 24.1991 33 23.6338 33 22.9674V21.0326C33.0092 20.3662 32.5312 19.8009 31.874 19.6906ZM31.7683 22.9674C31.7683 23.0272 31.727 23.0777 31.6672 23.0869L29.737 23.4086C29.4934 23.45 29.3004 23.6292 29.2407 23.8636C29.066 24.5392 28.7995 25.1872 28.441 25.7892C28.3169 26.0006 28.3261 26.2626 28.4686 26.4648L29.6037 28.0641C29.6359 28.1101 29.6313 28.179 29.5899 28.2204L28.2204 29.5899C28.1882 29.6221 28.1561 29.6267 28.1331 29.6267C28.1055 29.6267 28.0825 29.6175 28.0641 29.6037L26.4694 28.4686C26.2718 28.3261 26.0052 28.3169 25.7938 28.441C25.1918 28.7995 24.5438 29.066 23.8682 29.2407C23.6292 29.3004 23.45 29.498 23.4132 29.737L23.0869 31.6672C23.0777 31.727 23.0272 31.7683 22.9674 31.7683H21.0326C20.9728 31.7683 20.9223 31.727 20.9131 31.6672L20.5914 29.737C20.55 29.4934 20.3708 29.3004 20.1364 29.2407C19.4792 29.0706 18.845 28.8086 18.2521 28.4686C18.1556 28.4134 18.0453 28.3858 17.9396 28.3858C17.8155 28.3858 17.6869 28.4226 17.5812 28.5007L15.9726 29.6451C15.9497 29.6589 15.9267 29.6681 15.9037 29.6681C15.8853 29.6681 15.8485 29.6635 15.8164 29.6313L14.4468 28.2618C14.4055 28.2204 14.4009 28.156 14.433 28.1055L15.5636 26.5199C15.7061 26.3177 15.7153 26.0512 15.5912 25.8398C15.2327 25.2423 14.957 24.5943 14.7823 23.9187C14.718 23.6844 14.525 23.5051 14.286 23.4638L12.342 23.1329C12.2822 23.1237 12.2409 23.0731 12.2409 23.0134V21.0785C12.2409 21.0188 12.2822 20.9682 12.342 20.9591L14.2584 20.6374C14.502 20.596 14.6996 20.4168 14.7593 20.1778C14.9294 19.5022 15.1914 18.8496 15.5452 18.2475C15.6693 18.0361 15.6555 17.7742 15.5131 17.5766L14.3687 15.968C14.3365 15.9221 14.3411 15.8531 14.3825 15.8118L15.752 14.4422C15.7842 14.4101 15.8164 14.4055 15.8394 14.4055C15.8669 14.4055 15.8899 14.4147 15.9083 14.4285L17.4938 15.559C17.6961 15.7015 17.9626 15.7107 18.174 15.5866C18.7715 15.2281 19.4195 14.9524 20.0951 14.7777C20.3294 14.7134 20.5087 14.5204 20.55 14.2814L20.8809 12.3374C20.8901 12.2776 20.9407 12.2363 21.0004 12.2363H22.9352C22.995 12.2363 23.0455 12.2776 23.0547 12.3374L23.3764 14.2538C23.4178 14.4974 23.597 14.695 23.836 14.7548C24.53 14.9294 25.1918 15.2005 25.8076 15.5636C26.019 15.6877 26.281 15.6785 26.4832 15.536L28.0687 14.3963C28.0917 14.3825 28.1147 14.3733 28.1377 14.3733C28.1561 14.3733 28.1928 14.3779 28.225 14.4101L29.5945 15.7796C29.6359 15.821 29.6405 15.8853 29.6083 15.9359L28.4732 17.5306C28.3307 17.7282 28.3215 17.9948 28.4456 18.2062C28.8041 18.8082 29.0706 19.4562 29.2453 20.1318C29.305 20.3708 29.5026 20.55 29.7416 20.5868L31.6718 20.9131C31.7316 20.9223 31.7729 20.9728 31.7729 21.0326V22.9674H31.7683Z" fill="#8C0014"/>
<path d="M22.0033 17.2494C19.3837 17.2494 17.2559 19.3772 17.2559 21.9968C17.2559 24.6164 19.3837 26.7443 22.0033 26.7443C24.6229 26.7443 26.7507 24.6164 26.7507 21.9968C26.7507 19.3772 24.6229 17.2494 22.0033 17.2494ZM22.0033 25.5034C20.0685 25.5034 18.4967 23.9317 18.4967 21.9968C18.4967 20.062 20.0685 18.4903 22.0033 18.4903C23.9381 18.4903 25.5099 20.062 25.5099 21.9968C25.5099 23.9317 23.9381 25.5034 22.0033 25.5034Z" fill="#8C0014"/>
</svg>
