<svg width="44" height="44" viewBox="0 0 44 44" fill="none" xmlns="http://www.w3.org/2000/svg">
<circle cx="22" cy="22" r="21.5" stroke="#E2DEDE"/>
<path d="M23.2491 22.7222C25.7228 22.7222 27.7352 20.7098 27.7352 18.2361C27.7352 15.7625 25.7228 13.75 23.2491 13.75C23.2395 13.75 23.2299 13.7502 23.2203 13.7505H19.5557C19.5554 13.7505 19.5551 13.7505 19.5547 13.7505C19.1175 13.7505 18.7631 14.1049 18.7631 14.5421V14.5422V21.9306V24.3056H17.9714C17.5341 24.3056 17.1797 24.66 17.1797 25.0972C17.1797 25.5344 17.5341 25.8889 17.9714 25.8889H18.763V30.375C18.763 30.8122 19.1175 31.1667 19.5547 31.1667C19.9919 31.1667 20.3464 30.8122 20.3464 30.375V25.8889H23.2491C23.6863 25.8889 24.0408 25.5344 24.0408 25.0972C24.0408 24.66 23.6863 24.3056 23.2491 24.3056H20.3464V22.7222H23.2491ZM23.2491 15.3339C23.2577 15.3339 23.2662 15.3337 23.2747 15.3334C24.8636 15.3472 26.1519 16.644 26.1519 18.2361C26.1519 19.8367 24.8497 21.1389 23.2491 21.1389H20.3464V15.3339H23.2491Z" fill="#8C0014"/>
</svg>
