<svg width="44" height="44" viewBox="0 0 44 44" fill="none" xmlns="http://www.w3.org/2000/svg">
<path d="M32.1232 16.5499L32.1225 16.5313C32.1122 16.3024 32.1052 16.0602 32.1011 15.7907C32.0816 14.4766 31.037 13.3896 29.7227 13.3161C26.9825 13.1632 24.8626 12.2697 23.0514 10.5043L23.0359 10.4895C22.4452 9.94786 21.554 9.94786 20.963 10.4895L20.9476 10.5043C19.1363 12.2697 17.0165 13.1632 14.2763 13.3163C12.9622 13.3896 11.9174 14.4766 11.8979 15.7909C11.8939 16.0586 11.8868 16.3008 11.8765 16.5313L11.8754 16.5744C11.8221 19.3686 11.7559 22.8462 12.9193 26.0027C13.559 27.7384 14.5278 29.2473 15.7986 30.4876C17.246 31.9001 19.1418 33.0214 21.4333 33.8204C21.5078 33.8464 21.5853 33.8675 21.6642 33.8833C21.7755 33.9055 21.8875 33.9166 21.9995 33.9166C22.1115 33.9166 22.2237 33.9055 22.3348 33.8833C22.4137 33.8675 22.4917 33.8462 22.5666 33.82C24.8554 33.0196 26.7492 31.8977 28.1953 30.4854C29.4656 29.2447 30.4344 27.7355 31.0746 25.9994C32.2423 22.8335 32.1763 19.3494 32.1232 16.5499ZM29.7625 25.5155C28.5355 28.8424 26.0307 31.1271 22.1051 32.4999C22.0911 32.5047 22.0762 32.5088 22.0608 32.5119C22.0202 32.5199 21.9789 32.5199 21.9379 32.5117C21.9226 32.5087 21.9077 32.5047 21.8938 32.4999C17.9641 31.1296 15.4577 28.8462 14.2316 25.5192C13.1593 22.6096 13.22 19.4174 13.2737 16.6011L13.274 16.5855C13.2849 16.3435 13.2922 16.09 13.2962 15.8114C13.3049 15.2279 13.7697 14.7452 14.3543 14.7126C15.905 14.6261 17.2673 14.3264 18.519 13.7965C19.7691 13.2674 20.8794 12.5215 21.9129 11.5164C21.9655 11.472 22.0337 11.4718 22.086 11.5164C23.1198 12.5215 24.23 13.2674 25.48 13.7965C26.7317 14.3264 28.094 14.6261 29.6449 14.7126C30.2295 14.7452 30.6942 15.2279 30.7028 15.8116C30.7069 16.0916 30.7142 16.3451 30.7251 16.5855C30.7786 19.405 30.8379 22.5998 29.7625 25.5155Z" fill="#8C0014"/>
<path d="M21.9982 16C18.723 16 16.0586 18.8848 16.0586 22.4304C16.0586 25.9762 18.723 28.861 21.9982 28.861C25.2732 28.861 27.9378 25.9762 27.9378 22.4304C27.9378 18.8848 25.2732 16 21.9982 16ZM21.9982 27.3468C19.4942 27.3468 17.4571 25.1414 17.4571 22.4304C17.4571 19.7195 19.4942 17.514 21.9982 17.514C24.502 17.514 26.5391 19.7195 26.5391 22.4304C26.5391 25.1414 24.502 27.3468 21.9982 27.3468Z" fill="#8C0014"/>
<path d="M23.7071 20.4341L20.9483 23.4209L20.1996 22.6102C19.9264 22.3145 19.4837 22.3145 19.2106 22.6102C18.9376 22.9059 18.9376 23.3852 19.2106 23.6807L20.4539 25.0269C20.5905 25.1747 20.7694 25.2485 20.9483 25.2485C21.1273 25.2485 21.3062 25.1747 21.4428 25.0269L24.6961 21.5046C24.9691 21.2089 24.9691 20.7296 24.6961 20.4341C24.423 20.1382 23.9802 20.1382 23.7071 20.4341Z" fill="#8C0014"/>
<circle cx="22" cy="22" r="21.5" stroke="#E2DEDE"/>
</svg>
